<?xml version="1.0" encoding="utf-8"?>
<!-- Generator: Adobe Illustrator 25.0.1, SVG Export Plug-In . SVG Version: 6.00 Build 0)  -->
<svg version="1.0" id="Layer_1" xmlns="http://www.w3.org/2000/svg" xmlns:xlink="http://www.w3.org/1999/xlink" x="0px" y="0px"
	 viewBox="0 0 523.4 423.2" style="enable-background:new 0 0 523.4 423.2;" xml:space="preserve">
<style type="text/css">
	.st0{fill:#3C8BD9;}
	.st1{fill:#FABC04;}
	.st2{fill:#34A852;}
	.st3{fill:#E1C025;}
	.st4{fill:#757575;}
</style>
<g>
	<path class="st0" d="M222.2,83.8c2.4-6.3,5.7-12.1,10.6-16.8c19.6-19.1,52-14.3,65.3,9.7c10,18.2,20.6,36,30.9,54
		c17.2,29.9,34.6,59.8,51.6,89.8c14.3,25.1-1.2,56.8-29.6,61.1c-17.4,2.6-33.7-5.4-42.7-21c-15.1-26.3-30.3-52.6-45.4-78.8
		c-0.3-0.6-0.7-1.1-1.1-1.6c-1.6-1.3-2.3-3.2-3.3-4.9c-6.7-11.8-13.6-23.5-20.3-35.2c-4.3-7.6-8.8-15.1-13.1-22.7
		c-3.9-6.8-5.7-14.2-5.5-22C219.9,91.4,220.4,87.4,222.2,83.8"/>
	<path class="st1" d="M222.2,83.8c-0.9,3.6-1.7,7.2-1.9,11c-0.3,8.4,1.8,16.2,6,23.5c11,18.9,22,37.9,32.9,56.9c1,1.7,1.8,3.4,2.8,5
		c-6,10.4-12,20.7-18.1,31.1c-8.4,14.5-16.8,29.1-25.3,43.6c-0.4,0-0.5-0.2-0.6-0.5c-0.1-0.8,0.2-1.5,0.4-2.3
		c4.1-15,0.7-28.3-9.6-39.7c-6.3-6.9-14.3-10.8-23.5-12.1c-12-1.7-22.6,1.4-32.1,8.9c-1.7,1.3-2.8,3.2-4.8,4.2
		c-0.4,0-0.6-0.2-0.7-0.5c4.8-8.3,9.5-16.6,14.3-24.9c19.8-34.4,39.6-68.8,59.5-103.1C221.7,84.5,222,84.2,222.2,83.8"/>
	<path class="st2" d="M148.1,213.2c1.9-1.7,3.7-3.5,5.7-5.1c24.3-19.2,60.8-5.3,66.1,25.1c1.3,7.3,0.6,14.3-1.6,21.3
		c-0.1,0.6-0.2,1.1-0.4,1.7c-0.9,1.6-1.7,3.3-2.7,4.9c-8.9,14.7-22,22-39.2,20.9c-19.7-1.4-35.2-16.2-37.9-35.8
		c-1.3-9.5,0.6-18.4,5.5-26.6c1-1.8,2.2-3.4,3.3-5.2C147.4,214,147.2,213.2,148.1,213.2"/>
	<path class="st1" d="M148.1,213.2c-0.4,0.4-0.4,1.1-1.1,1.2c-0.1-0.7,0.3-1.1,0.7-1.6L148.1,213.2"/>
	<path class="st3" d="M217.9,256.2c-0.4-0.7,0-1.2,0.4-1.7c0.1,0.1,0.3,0.3,0.4,0.4L217.9,256.2"/>
	<path class="st4" d="M157,315.6c-11.3,0-20.7,9.1-20.7,20.3s9.4,20.2,20.7,20.2c6.1,0,10.6-2,14.2-5.7c3.7-3.7,4.8-8.8,4.8-12.9
		c0-1.3-0.1-2.5-0.3-3.5H157v5.5h13.3c-0.4,3.1-1.4,5.4-3,7c-1.9,1.9-5,4.1-10.3,4.1c-8.2,0-14.6-6.6-14.6-14.7s6.4-14.7,14.6-14.7
		c4.4,0,7.7,1.7,10,4l3.9-3.9C167.6,318.1,163.2,315.6,157,315.6z M190.9,330.1c-7.1,0-13,5.5-13,13.2c0,7.6,5.8,13.2,13,13.2
		s13-5.6,13-13.2S198,330.1,190.9,330.1 M190.9,351.3c-3.9,0-7.3-3.3-7.3-8s3.4-8,7.3-8s7.3,3.2,7.3,8
		C198.2,348,194.8,351.3,190.9,351.3 M219.1,330.1c-7.2,0-13,5.5-13,13.2c0,7.6,5.8,13.2,13,13.2c7.1,0,13-5.6,13-13.2
		S226.3,330.1,219.1,330.1 M219.1,351.3c-3.9,0-7.3-3.3-7.3-8s3.4-8,7.3-8c3.9,0,7.3,3.2,7.3,8C226.4,348,223.1,351.3,219.1,351.3
		 M247.2,330.1c-6.5,0-12.4,5.7-12.4,13.1c0,7.3,5.9,13,12.4,13c3.1,0,5.5-1.4,6.8-3h0.2v1.9c0,5-2.6,7.7-6.9,7.7
		c-3.5,0-5.6-2.5-6.5-4.6l-5,2.1c1.4,3.5,5.2,7.7,11.5,7.7c6.7,0,12.3-4,12.3-13.6V331h-5.4v2.1H254
		C252.7,331.5,250.3,330.1,247.2,330.1 M247.7,351.1c-3.9,0-7.2-3.3-7.2-7.9s3.3-8,7.2-8c3.9,0,6.9,3.4,6.9,8
		S251.6,351.1,247.7,351.1 M263.8,317.2h5.7v38.6h-5.7V317.2z M284.8,330.1c-6.8,0-12.5,5.3-12.5,13.2c0,7.4,5.6,13.2,13.1,13.2
		c6.1,0,9.6-3.7,11-5.8l-4.5-3c-1.5,2.2-3.6,3.6-6.5,3.6c-3,0-5.1-1.3-6.4-4l17.7-7.3l-0.6-1.5C295,335.6,291.6,330.1,284.8,330.1
		 M278,342.9c-0.2-5.1,4-7.7,6.9-7.7c2.3,0,4.3,1.1,4.9,2.8L278,342.9z"/>
	<path class="st4" d="M306.7,355.2l13.2-35.1h5.1l13.2,35.1h-5l-3.4-9.5h-14.7l-3.4,9.5H306.7z M316.6,341.5h11.7l-5.7-15.8h-0.2
		L316.6,341.5z"/>
	<path class="st4" d="M342.8,352.3c-2.2-2.5-3.3-5.5-3.3-9.1c0-3.5,1.1-6.5,3.3-9.1c2.3-2.5,4.9-3.7,8.1-3.7c1.8,0,3.4,0.4,4.8,1.1
		c1.5,0.8,2.6,1.7,3.4,3h0.2l-0.2-3.3v-11.1h4.5v35.1h-4.3v-3.3h-0.2c-0.8,1.2-1.9,2.2-3.4,3s-3.1,1.1-4.8,1.1
		C347.7,356,345,354.8,342.8,352.3 M357,349.5c1.5-1.6,2.2-3.7,2.2-6.3c0-2.5-0.7-4.6-2.2-6.2c-1.4-1.6-3.2-2.4-5.4-2.4
		c-2.2,0-4,0.8-5.4,2.4c-1.5,1.6-2.2,3.7-2.2,6.2s0.7,4.6,2.2,6.2s3.3,2.4,5.4,2.4C353.8,351.9,355.6,351.1,357,349.5"/>
	<path class="st4" d="M384.4,353.8c-1.8,1.4-4.1,2.2-6.9,2.2c-2.4,0-4.5-0.6-6.4-1.9c-1.8-1.3-3.1-2.9-3.9-5l4-1.7
		c0.6,1.4,1.4,2.6,2.6,3.4c1.1,0.8,2.4,1.2,3.7,1.2c1.4,0,2.6-0.3,3.6-0.9s1.4-1.4,1.4-2.2c0-1.5-1.2-2.7-3.5-3.4l-4.1-1
		c-4.7-1.2-7-3.4-7-6.8c0-2.2,0.9-3.9,2.7-5.3c1.8-1.3,4.1-2,6.8-2c2.1,0,4,0.5,5.8,1.5c1.7,1,2.9,2.4,3.6,4.1l-4,1.7
		c-0.5-1-1.2-1.8-2.2-2.4s-2.2-0.9-3.5-0.9c-1.2,0-2.2,0.3-3.2,0.9c-0.9,0.6-1.4,1.3-1.4,2.2c0,1.4,1.3,2.4,3.9,2.9l3.6,0.9
		c4.8,1.2,7.1,3.6,7.1,7.2C387.2,350.6,386.2,352.4,384.4,353.8"/>
</g>
</svg>
