<svg id="Слой_1" data-name="Слой 1" xmlns="http://www.w3.org/2000/svg" viewBox="0 0 41.51 41.51"><defs><style>.cls-1{fill:#0080ff;}</style></defs><title>box</title><path class="cls-1" d="M63.64,60.74H65v1.34H63.64Z" transform="translate(-29.49 -23.25)"/><path class="cls-1" d="M61,60.74H62.3v1.34H61Z" transform="translate(-29.49 -23.25)"/><path class="cls-1" d="M58.28,60.74h1.34v1.34H58.28Z" transform="translate(-29.49 -23.25)"/><path class="cls-1" d="M58.28,58.06H65V59.4H58.28Z" transform="translate(-29.49 -23.25)"/><path d="M71,30.61a2,2,0,0,0-2-2V27.26a2,2,0,1,0,0-4H58.28a2,2,0,1,0,0,4V28.6a2,2,0,0,0-1.88,1.34h-.8a3.35,3.35,0,0,0-3.34,3.35V47.35H50.92V33.29a3.36,3.36,0,0,0-3.35-3.35H46.9V25.26a2,2,0,0,0-2-2H31.5a2,2,0,0,0-2,2v9.37a2,2,0,0,0,2,2H44.89a2,2,0,0,0,2-2V31.28h.67a2,2,0,0,1,2,2V47.35H48.24V44a3.35,3.35,0,0,0-3.35-3.35H42.82A3.37,3.37,0,0,0,39.54,38H34.18a3.35,3.35,0,0,0,0,6.7h8.7V42h2a2,2,0,0,1,2,2v3.35H33.1L29.75,54h3.09V64.75H67.65V54h3.09L67.4,47.35H56.27v-2a2,2,0,0,1,2-2H59A3.35,3.35,0,1,0,59,42h-.74a3.35,3.35,0,0,0-3.35,3.35v2H53.59V33.29a2,2,0,0,1,2-2h.8a2,2,0,0,0,1.88,1.34V34a2,2,0,1,0,0,4H69a2,2,0,1,0,0-4V32.62A2,2,0,0,0,71,30.61Zm-25.44,4a.67.67,0,0,1-.67.67H31.5a.67.67,0,0,1-.67-.67V25.26a.67.67,0,0,1,.67-.67H44.89a.67.67,0,0,1,.67.67Zm-4,8.7H34.18a2,2,0,0,1,0-4h5.36a2,2,0,0,1,2,2ZM62.3,40.65a2,2,0,1,1-2,2A2,2,0,0,1,62.3,40.65Zm-28.38,8h9.89l-2,4H31.92ZM34.18,54h8.45l2.26-4.53v13.9H34.18Zm32.13,9.37H46.23V49.51L48.49,54H66.31ZM68.58,52.7H49.32l-2-4H66.57Zm-11-27.44a.67.67,0,0,1,.67-.67H69a.67.67,0,1,1,0,1.33H58.28A.67.67,0,0,1,57.61,25.26Zm2,2h8V28.6h-8Zm-2,3.35a.67.67,0,0,1,.67-.67H69a.67.67,0,1,1,0,1.34H58.28A.67.67,0,0,1,57.61,30.61Zm12,5.36a.67.67,0,0,1-.67.67H58.28a.67.67,0,0,1,0-1.34H69A.67.67,0,0,1,69.66,36Zm-2-2h-8V32.62h8Z" transform="translate(-29.49 -23.25)"/><path class="cls-1" d="M40.21,27.26H37.53V28.6H34.85v1.34H32.17v4h12v-8h-4Zm-2.68,2.68v2.68H36.19V29.94Zm-4,1.34h1.34v1.34H33.51Zm5.36,1.34v-4h1.34v4Zm2.67-5.36h1.34v5.36H41.54Z" transform="translate(-29.49 -23.25)"/><path d="M33.51,40.65h1.34V42H33.51Z" transform="translate(-29.49 -23.25)"/><path d="M36.19,40.65h1.34V42H36.19Z" transform="translate(-29.49 -23.25)"/><path d="M38.87,40.65h1.34V42H38.87Z" transform="translate(-29.49 -23.25)"/><path d="M64.31,50h1.33v1.33H64.31Z" transform="translate(-29.49 -23.25)"/><path d="M61.63,50H63v1.33H61.63Z" transform="translate(-29.49 -23.25)"/><path d="M59,50h1.34v1.33H59Z" transform="translate(-29.49 -23.25)"/><path d="M35.52,55.38h1.34v1.34H35.52Z" transform="translate(-29.49 -23.25)"/><path d="M35.52,58.06h1.34V59.4H35.52Z" transform="translate(-29.49 -23.25)"/><path d="M35.52,60.74h1.34v1.34H35.52Z" transform="translate(-29.49 -23.25)"/></svg>