<svg id="Слой_1" data-name="Слой 1" xmlns="http://www.w3.org/2000/svg" viewBox="0 0 31.51 30.95"><defs><style>.cls-1{fill:#0080ff;}</style></defs><title>creative</title><path d="M52.14,50.11a.45.45,0,0,0-.46.46.46.46,0,0,0,.46.46h2.21a.47.47,0,0,0,.47-.46.46.46,0,0,0-.47-.46Z" transform="translate(-37.49 -27.52)"/><path class="cls-1" d="M43,42.94h3a1.29,1.29,0,0,0,1.21.83,1.27,1.27,0,0,0,1.2-.83h.61a.47.47,0,0,0,.47-.46A.46.46,0,0,0,49.1,42h-.61a1.27,1.27,0,0,0-1.2-.83,1.29,1.29,0,0,0-1.21.83H43a.46.46,0,0,0-.46.46A.47.47,0,0,0,43,42.94Zm4.26-.83a.37.37,0,0,1,0,.74.37.37,0,1,1,0-.74Z" transform="translate(-37.49 -27.52)"/><path class="cls-1" d="M43,40.29h.59a1.3,1.3,0,0,0,1.21.84,1.28,1.28,0,0,0,1.2-.84H49.1a.46.46,0,0,0,.47-.46.47.47,0,0,0-.47-.46H46a1.29,1.29,0,0,0-1.2-.83,1.31,1.31,0,0,0-1.21.83H43a.47.47,0,0,0-.46.46A.46.46,0,0,0,43,40.29Zm1.8-.83a.38.38,0,0,1,.37.37.37.37,0,0,1-.37.37.36.36,0,0,1-.37-.37A.37.37,0,0,1,44.83,39.46Z" transform="translate(-37.49 -27.52)"/><circle class="cls-1" cx="11.7" cy="8.06" r="0.46"/><circle class="cls-1" cx="10.43" cy="8.06" r="0.46"/><circle class="cls-1" cx="9.16" cy="8.06" r="0.46"/><path d="M67.62,30.35h-.18l.13-.13a1,1,0,0,0,0-1.4l-1-1a1,1,0,0,0-1.4,0l-2.54,2.54H38.88a1.39,1.39,0,0,0-1.39,1.39V50.9a1.7,1.7,0,0,0,1.7,1.7H50.12v3.26H47.89a1.07,1.07,0,0,0-1.07,1.08v.46a1.08,1.08,0,0,0,1.07,1.08H58.6a1.09,1.09,0,0,0,1.08-1.08v-.46a1.08,1.08,0,0,0-1.08-1.08H56.38V52.6h4.93a.47.47,0,0,0,0-.93H39.19a.76.76,0,0,1-.77-.77V49.54H68.08V50.9a.77.77,0,0,1-.77.77H63.46a.47.47,0,0,0,0,.93h3.85A1.7,1.7,0,0,0,69,50.9V31.74a1.38,1.38,0,0,0-1.38-1.39Zm-9,26.43a.15.15,0,0,1,.15.16v.46a.15.15,0,0,1-.15.15H47.89a.15.15,0,0,1-.15-.15v-.46a.16.16,0,0,1,.15-.16ZM51,52.6h4.41v3.26H51ZM65.81,28.47a.07.07,0,0,1,.1,0l1,1a.06.06,0,0,1,0,.09l-1,1-1.1-1.11ZM64.2,30.08l1.1,1.11-.32.32-1.11-1.1Zm-1,1,1.11,1.1-5.46,5.46-1.11-1.1Zm-.68,4.22a1.14,1.14,0,1,1-1.14,1.14v0l1.12-1.11Zm-4.48,2.85-1.36.56.56-1.37Zm10,10.48H38.42V31.74a.45.45,0,0,1,.46-.46H61.7L61,32H45.31a.46.46,0,0,0-.46.46.45.45,0,0,0,.46.46H60.07l-3.25,3.26a.87.87,0,0,0-.22.32l-1,2.53a.62.62,0,0,0,.14.67.6.6,0,0,0,.44.18.68.68,0,0,0,.23,0l2.52-1a1.16,1.16,0,0,0,.32-.2l1.4-1.41A2.06,2.06,0,1,0,63.3,34.5l1.59-1.6h1.56V47h-.24l-1.68-2.9a.46.46,0,0,0-.8.46L65.14,47H58.69L58,45.79l3.22-5.58,1.44,2.48a.46.46,0,0,0,.8-.46l-1.53-2.65a.81.81,0,0,0-1.41,0l-3.05,5.29-3.92-6.79a.82.82,0,0,0-1.41,0l-1,1.81v-5A1.08,1.08,0,0,0,50,33.86H42.11A1.09,1.09,0,0,0,41,34.94V45a.78.78,0,0,0,.77.77h5.89L47,47H40V32.9h3.12a.46.46,0,0,0,.46-.46.47.47,0,0,0-.46-.46H39.89a.78.78,0,0,0-.77.77V47.14a.77.77,0,0,0,.77.77H66.6a.76.76,0,0,0,.77-.77V32.75A.77.77,0,0,0,66.6,32h-.78l.7-.7h1.1a.46.46,0,0,1,.46.46ZM50.18,37.49v7.39H42V37.49ZM42,36.57V34.94a.15.15,0,0,1,.15-.16H50a.16.16,0,0,1,.15.16v1.63Zm6.8,9.23h1.57A.77.77,0,0,0,51.1,45v-1a.85.85,0,0,0,.38.09.86.86,0,0,0,.76-.44L53,42.34a.11.11,0,0,1,.09-.05.09.09,0,0,1,.08.05l.49.84a.87.87,0,0,0,1.51,0l.12-.21,2.32,4H48.07Zm2.34-3.29v-.78l1.75-3,1.93,3.34-.35.59L54,41.88a1,1,0,0,0-.88-.51,1,1,0,0,0-.89.51l-.74,1.28Z" transform="translate(-37.49 -27.52)"/></svg>