<svg id="Слой_1" data-name="Слой 1" xmlns="http://www.w3.org/2000/svg" viewBox="0 0 52 46.72"><defs><style>.cls-1{fill:#0080ff;}</style></defs><title>idea</title><path d="M72.83,20.27H37.32a1,1,0,0,0,0,2H72.83A1.14,1.14,0,0,1,74,23.44v.89H26v-.89a1.14,1.14,0,0,1,1.14-1.14h2a1,1,0,0,0,0-2h-2A3.17,3.17,0,0,0,24,23.44V55.7a3.17,3.17,0,0,0,3.17,3.16H44.79L44,65H40.86a1,1,0,1,0,0,2H59.14a1,1,0,1,0,0-2H56l-.76-6.1H72.83A3.17,3.17,0,0,0,76,55.7V23.44A3.17,3.17,0,0,0,72.83,20.27ZM53.93,65H46.07l.76-6.1h6.34Zm18.9-8.13H27.17A1.14,1.14,0,0,1,26,55.7v-.9H62.8a1,1,0,0,0,0-2H26V26.36H74V52.77h-3a1,1,0,0,0,0,2h3v.9A1.14,1.14,0,0,1,72.83,56.83Z" transform="translate(-24 -20.27)"/><path d="M33.26,22.3a1,1,0,1,0,0-2h0a1,1,0,1,0,0,2Z" transform="translate(-24 -20.27)"/><path d="M66.86,52.77h0a1,1,0,1,0,1,1A1,1,0,0,0,66.86,52.77Z" transform="translate(-24 -20.27)"/><path class="cls-1" d="M50,31.65a7.1,7.1,0,0,0-3.55,13.26v2.94a3,3,0,0,0,3,3h1a3,3,0,0,0,3-3V44.91A7.1,7.1,0,0,0,50,31.65Zm.51,17.22h-1a1,1,0,0,1-1-1v-1h3v1A1,1,0,0,1,50.51,48.87Zm1.61-5.5a1,1,0,0,0-.6.93v.5h-3v-.5a1,1,0,0,0-.6-.93,5.08,5.08,0,1,1,4.24,0Z" transform="translate(-24 -20.27)"/><path class="cls-1" d="M50,30.63a1,1,0,0,0,1-1v-.37a1,1,0,0,0-2,0v.37A1,1,0,0,0,50,30.63Z" transform="translate(-24 -20.27)"/><path class="cls-1" d="M44.55,31.35a1,1,0,0,0,.88.51,1.06,1.06,0,0,0,.51-.14,1,1,0,0,0,.37-1.39L46.13,30a1,1,0,1,0-1.76,1Z" transform="translate(-24 -20.27)"/><path class="cls-1" d="M42.59,33.31l-.31-.19a1,1,0,0,0-1.39.38,1,1,0,0,0,.37,1.38l.32.19a1,1,0,0,0,1-1.76Z" transform="translate(-24 -20.27)"/><path class="cls-1" d="M40.86,37.74h-.37a1,1,0,0,0,0,2h.37a1,1,0,0,0,0-2Z" transform="translate(-24 -20.27)"/><path class="cls-1" d="M59.51,37.74h-.37a1,1,0,1,0,0,2h.37a1,1,0,0,0,0-2Z" transform="translate(-24 -20.27)"/><path class="cls-1" d="M58.74,34.88a1,1,0,0,0,.37-1.38,1,1,0,0,0-1.39-.38l-.31.19a1,1,0,0,0,1,1.76Z" transform="translate(-24 -20.27)"/><path class="cls-1" d="M54.06,31.72a1.06,1.06,0,0,0,.51.14,1,1,0,0,0,.88-.51l.18-.32a1,1,0,1,0-1.76-1l-.18.31A1,1,0,0,0,54.06,31.72Z" transform="translate(-24 -20.27)"/></svg>