<svg id="Слой_1" data-name="Слой 1" xmlns="http://www.w3.org/2000/svg" viewBox="0 0 37.51 37.52"><defs><style>.cls-1{fill:#0080ff;}</style></defs><title>loop</title><path d="M69.18,55.94l-6.79-6.8a.74.74,0,0,0-.1-.92.73.73,0,0,0-.92-.09l-1.81-1.82A14.67,14.67,0,0,0,62,39.54,14.83,14.83,0,0,0,59.75,30a.73.73,0,0,0-1-.22.74.74,0,0,0-.22,1,13.34,13.34,0,1,1-4.19-4.13.73.73,0,1,0,.77-1.25,14.81,14.81,0,0,0-18.28,23,14.85,14.85,0,0,0,18.73,1.81l1.81,1.8a.73.73,0,0,0,1,1l6.78,6.78a2.8,2.8,0,0,0,2,.82,2.87,2.87,0,0,0,2-.83A2.82,2.82,0,0,0,69.18,55.94ZM57.06,49.76,59,47.83l1.33,1.32-1.94,1.94Zm11.07,9.13a1.36,1.36,0,0,1-1.92,0l-6.78-6.79,1.93-1.93L68.15,57A1.37,1.37,0,0,1,68.13,58.89Z" transform="translate(-32.49 -23.24)"/><path d="M57.77,27.59v0a.75.75,0,0,0-1,0,.73.73,0,0,0,0,1l0,0a.73.73,0,1,0,1-1Z" transform="translate(-32.49 -23.24)"/><path d="M47.29,26.75A11.29,11.29,0,1,0,58.57,38,11.31,11.31,0,0,0,47.29,26.75Zm0,21.11A9.82,9.82,0,1,1,57.11,38,9.83,9.83,0,0,1,47.29,47.86Z" transform="translate(-32.49 -23.24)"/><path class="cls-1" d="M50.08,37.09A3.57,3.57,0,0,0,50.81,35V34a3.52,3.52,0,0,0-7,0v1a3.5,3.5,0,0,0,.73,2.14A5,5,0,0,0,40.4,42v.38a.73.73,0,0,0,.73.73H53.44a.73.73,0,0,0,.74-.73V42A5,5,0,0,0,50.08,37.09ZM45.24,34a2.05,2.05,0,0,1,4.1,0v1a2,2,0,1,1-4.1,0Zm-3.36,7.69a3.59,3.59,0,0,1,3.56-3.22h3.7a3.57,3.57,0,0,1,3.55,3.22Z" transform="translate(-32.49 -23.24)"/><path class="cls-1" d="M64.9,24.12a.73.73,0,0,0-.73.73v.91a.73.73,0,0,0,.73.73.72.72,0,0,0,.73-.73v-.91A.72.72,0,0,0,64.9,24.12Z" transform="translate(-32.49 -23.24)"/><path class="cls-1" d="M64.9,28.48a.73.73,0,0,0-.73.73v.92a.73.73,0,1,0,1.46,0v-.92A.73.73,0,0,0,64.9,28.48Z" transform="translate(-32.49 -23.24)"/><path class="cls-1" d="M67.54,26.75h-.91a.74.74,0,0,0,0,1.47h.91a.74.74,0,0,0,0-1.47Z" transform="translate(-32.49 -23.24)"/><path class="cls-1" d="M63.17,26.75h-.91a.74.74,0,0,0,0,1.47h.91a.74.74,0,1,0,0-1.47Z" transform="translate(-32.49 -23.24)"/><path d="M37,53.43a.74.74,0,0,0-.73.74v.91a.74.74,0,0,0,1.47,0v-.91A.74.74,0,0,0,37,53.43Z" transform="translate(-32.49 -23.24)"/><path d="M37,57.8a.73.73,0,0,0-.73.73v.91a.74.74,0,0,0,1.47,0v-.91A.74.74,0,0,0,37,57.8Z" transform="translate(-32.49 -23.24)"/><path d="M39.66,56.07h-.91a.74.74,0,0,0,0,1.47h.91a.74.74,0,1,0,0-1.47Z" transform="translate(-32.49 -23.24)"/><path d="M35.3,56.07h-.91a.74.74,0,1,0,0,1.47h.91a.74.74,0,0,0,0-1.47Z" transform="translate(-32.49 -23.24)"/></svg>