<svg id="Слой_1" data-name="Слой 1" xmlns="http://www.w3.org/2000/svg" viewBox="0 0 55.51 55.51"><defs><style>.cls-1{fill:#0080ff;}</style></defs><title>responsive</title><g id="Outline"><g id="Responsive-design"><path d="M26,18h3.7V19.8H26Z" transform="translate(-20.49 -14.25)"/><path d="M31.59,18H35.3V19.8H31.59Z" transform="translate(-20.49 -14.25)"/><path d="M37.15,18h3.7V19.8h-3.7Z" transform="translate(-20.49 -14.25)"/><path class="cls-1" d="M27,27.2H51a.93.93,0,0,0,.93-.93v-3.7a.93.93,0,0,0-.93-.92H27a.93.93,0,0,0-.93.92v3.7A.93.93,0,0,0,27,27.2Zm.92-3.7H50.1v1.85H27.89Z" transform="translate(-20.49 -14.25)"/><path class="cls-1" d="M27,34.6H51a.93.93,0,0,0,.93-.93V30a.93.93,0,0,0-.93-.92H27A.93.93,0,0,0,26,30v3.7A.93.93,0,0,0,27,34.6Zm.92-3.7H50.1v1.85H27.89Z" transform="translate(-20.49 -14.25)"/><path d="M26,36.45H48.25V38.3H26Z" transform="translate(-20.49 -14.25)"/><path d="M56.84,27.85l1.31-1.31L57,25.35h3.31a2.77,2.77,0,0,1,2.78,2.77v2.4l-1.2-1.2-1.31,1.31,2.78,2.77a.93.93,0,0,0,1.31,0h0l2.77-2.77-1.31-1.31-1.19,1.2v-2.4a4.62,4.62,0,0,0-4.63-4.62H57l1.19-1.2L56.84,21l-2.77,2.78a.93.93,0,0,0,0,1.31h0Z" transform="translate(-20.49 -14.25)"/><path d="M46.13,60.77l-1.31,1.31,2.12,2.12H30.67a2.78,2.78,0,0,1-2.78-2.77v-7L30,56.53l1.3-1.31-3.7-3.7a.92.92,0,0,0-1.3,0h0l-3.71,3.7,1.31,1.31L26,54.41v7a4.64,4.64,0,0,0,4.63,4.62H46.94l-2.12,2.12,1.31,1.31,3.7-3.7a.93.93,0,0,0,0-1.31h0Z" transform="translate(-20.49 -14.25)"/><path d="M71.37,34.6h-.92V18.87a4.62,4.62,0,0,0-4.63-4.62H25.12a4.64,4.64,0,0,0-4.63,4.62V42.93a4.64,4.64,0,0,0,4.63,4.62H39v3.7H35.3a1.85,1.85,0,0,0-1.85,1.85V55A1.85,1.85,0,0,0,35.3,56.8H53.8v8.33a4.62,4.62,0,0,0,4.62,4.62h13A4.62,4.62,0,0,0,76,65.13V39.22A4.62,4.62,0,0,0,71.37,34.6Zm2.78,4.62V60.5H55.65V39.22a2.77,2.77,0,0,1,2.77-2.77h13A2.77,2.77,0,0,1,74.15,39.22ZM53.8,47.55v3.7H52v-3.7ZM25.12,16.1h40.7a2.77,2.77,0,0,1,2.78,2.77V34.6H58.42a4.62,4.62,0,0,0-4.62,4.62v.93H22.34V18.87A2.78,2.78,0,0,1,25.12,16.1ZM22.34,42.93V42H53.8v3.7H25.12A2.78,2.78,0,0,1,22.34,42.93Zm18.51,4.62H50.1v3.7H40.85ZM35.3,55V53.1H53.8V55Zm36.07,13h-13a2.77,2.77,0,0,1-2.77-2.77V62.35h18.5v2.78A2.77,2.77,0,0,1,71.37,67.9Z" transform="translate(-20.49 -14.25)"/><path d="M57.5,38.3h1.85v1.85H57.5Z" transform="translate(-20.49 -14.25)"/><path d="M61.2,38.3h1.85v1.85H61.2Z" transform="translate(-20.49 -14.25)"/><path d="M64.9,38.3h1.85v1.85H64.9Z" transform="translate(-20.49 -14.25)"/><path class="cls-1" d="M57.5,42.93v3.7a.92.92,0,0,0,.92.92h13a.92.92,0,0,0,.93-.92v-3.7a.92.92,0,0,0-.93-.93h-13A.92.92,0,0,0,57.5,42.93Zm1.85.92h11.1V45.7H59.35Z" transform="translate(-20.49 -14.25)"/><path class="cls-1" d="M71.37,49.4h-13a.93.93,0,0,0-.92.93V54a.92.92,0,0,0,.92.92h13A.92.92,0,0,0,72.3,54v-3.7A.93.93,0,0,0,71.37,49.4Zm-.92,3.7H59.35V51.25h11.1Z" transform="translate(-20.49 -14.25)"/><path d="M57.5,56.8H72.3v1.85H57.5Z" transform="translate(-20.49 -14.25)"/><path d="M63.05,64.2h3.7v1.85h-3.7Z" transform="translate(-20.49 -14.25)"/></g></g></svg>