<svg id="Слой_1" data-name="Слой 1" xmlns="http://www.w3.org/2000/svg" viewBox="0 0 55.51 55.51"><defs><style>.cls-1{fill:#0080ff;}</style></defs><title>technology</title><path class="cls-1" d="M52.15,43H44.34a1.09,1.09,0,0,0-1.08,1.09v7.8A1.09,1.09,0,0,0,44.34,53h7.81a1.08,1.08,0,0,0,1.08-1.09V44.1A1.08,1.08,0,0,0,52.15,43Zm-1.08,7.81H45.43V45.18h5.64Z" transform="translate(-20.49 -20.25)"/><path d="M72.31,26.1A3.69,3.69,0,1,0,76,29.79,3.69,3.69,0,0,0,72.31,26.1Zm0,5.2a1.52,1.52,0,1,1,1.52-1.51A1.52,1.52,0,0,1,72.31,31.3Z" transform="translate(-20.49 -20.25)"/><path d="M66.74,29a1.07,1.07,0,1,0,.32.76A1.1,1.1,0,0,0,66.74,29Z" transform="translate(-20.49 -20.25)"/><path d="M65.54,49.08a3.69,3.69,0,1,0,0-2.16H58.87V38.46a1.08,1.08,0,0,0-1.08-1.08H56.05V30.87h6.08a1.09,1.09,0,0,0,0-2.17H55a1.09,1.09,0,0,0-1.09,1.08v7.6H49.33V30.71a3.69,3.69,0,1,0-2.17,0v6.67H38.71a1.08,1.08,0,0,0-1.09,1.08v1.73H31.11V27.46a3.68,3.68,0,1,0-2.16,0V41.28A1.08,1.08,0,0,0,30,42.36h7.59v4.56H31a3.69,3.69,0,1,0,0,2.16h6.67v8.46a1.08,1.08,0,0,0,1.09,1.08h1.73v6.51H34.37a1.09,1.09,0,1,0,0,2.17h7.16a1.09,1.09,0,0,0,1.08-1.08v-7.6h4.55v6.67a3.69,3.69,0,1,0,2.17,0V58.62h8.46a1.08,1.08,0,0,0,1.08-1.08V55.81h6.51V68.54a3.69,3.69,0,1,0,2.17,0V54.72a1.08,1.08,0,0,0-1.09-1.08H58.87V49.08Zm3.53-2.6A1.52,1.52,0,1,1,67.55,48,1.52,1.52,0,0,1,69.07,46.48Zm-39-21a1.52,1.52,0,1,1,1.52-1.52A1.52,1.52,0,0,1,30,25.45Zm-2.6,24.07A1.52,1.52,0,1,1,29,48,1.52,1.52,0,0,1,27.43,49.52Zm19.3-22.34a1.52,1.52,0,1,1,1.52,1.52A1.53,1.53,0,0,1,46.73,27.18Zm3,41.64a1.52,1.52,0,1,1-1.51-1.52A1.52,1.52,0,0,1,49.76,68.82ZM56.7,56.46H39.79V39.54H56.7Zm9.76,14.09a1.52,1.52,0,1,1-1.52,1.52A1.52,1.52,0,0,1,66.46,70.55Z" transform="translate(-20.49 -20.25)"/><path d="M24.18,62.53a3.69,3.69,0,1,0,3.69,3.68A3.69,3.69,0,0,0,24.18,62.53Zm0,5.2a1.52,1.52,0,1,1,1.52-1.52A1.52,1.52,0,0,1,24.18,67.73Z" transform="translate(-20.49 -20.25)"/><path d="M31.29,65.45a1.07,1.07,0,0,0-1.53,0,1.07,1.07,0,0,0,0,1.53,1.08,1.08,0,1,0,1.53-1.53Z" transform="translate(-20.49 -20.25)"/></svg>