<svg id="Слой_1" data-name="Слой 1" xmlns="http://www.w3.org/2000/svg" viewBox="0 0 49.51 49.15"><defs><style>.cls-1{fill:#0080ff;}</style></defs><title>web sey</title><g id="_09_Seo" data-name="09 Seo"><path d="M70,26.57a2.15,2.15,0,0,0-2.16-2.14l-39.43,0a2.15,2.15,0,0,0-2.15,2.15c0,3.09,0,9.36,0,12.39H23.46a3,3,0,0,0-3,3v9.8a3,3,0,0,0,3,3h2.77v5.8a2.16,2.16,0,0,0,2.16,2.15h12.4c0,.5,0,1.12.7,1.24l1.89.33a10.18,10.18,0,0,0,.77,1.91L43.12,67.7a.77.77,0,0,0,0,.9A12.31,12.31,0,0,0,46,71.35a.78.78,0,0,0,.9,0l1.41-1a9.72,9.72,0,0,0,1.85.79l.29,1.68a.78.78,0,0,0,.64.63,12.7,12.7,0,0,0,3.94,0,.8.8,0,0,0,.64-.64l.29-1.68a9.28,9.28,0,0,0,1.84-.79l1.43,1a.78.78,0,0,0,.9,0,12.22,12.22,0,0,0,2.82-2.74.78.78,0,0,0,0-.9l-1.08-1.56a10.18,10.18,0,0,0,.77-1.91l1.89-.34c.66-.11.65-.75.7-1.24h2.65A2.15,2.15,0,0,0,70,60.5V50.37a.78.78,0,0,0-1.55,0V60.5a.6.6,0,0,1-.6.6H65.28a13.36,13.36,0,0,0-.15-1.78.79.79,0,0,0-.64-.64l-1.88-.32a9.22,9.22,0,0,0-.78-1.92l1.06-1.54a.75.75,0,0,0,0-.89,12.12,12.12,0,0,0-2.82-2.76.77.77,0,0,0-.9,0l-1.42,1a9.82,9.82,0,0,0-1.84-.77l-.3-1.7a.75.75,0,0,0-.64-.63,11.63,11.63,0,0,0-4,0,.77.77,0,0,0-.62.63l-.29,1.68a10,10,0,0,0-1.84.78l-1.42-1a.77.77,0,0,0-.89,0A12.53,12.53,0,0,0,43.13,54a.77.77,0,0,0,0,.9l1.06,1.52a9.75,9.75,0,0,0-.77,1.92l-1.87.32a.79.79,0,0,0-.63.63,11.37,11.37,0,0,0-.16,1.8H28.41a.6.6,0,0,1-.6-.6v-5.8H31l3.34,3.4a1.3,1.3,0,0,0,1.44.3,1.33,1.33,0,0,0,.82-1.23V54.73h.93a3,3,0,0,0,3-3V42a3,3,0,0,0-3-3H27.79V36.61l40.64,0v9.37a.78.78,0,1,0,1.55,0c0-5.76,0-10.59,0-19.37ZM42.35,60.13l1.8-.32a.77.77,0,0,0,.63-.59,8.64,8.64,0,0,1,1-2.42.78.78,0,0,0,0-.83l-1-1.44a11.05,11.05,0,0,1,1.69-1.66l1.36,1a.79.79,0,0,0,.86,0,8.1,8.1,0,0,1,2.35-1,.79.79,0,0,0,.57-.62l.28-1.62a10.93,10.93,0,0,1,2.36,0l.28,1.62a.75.75,0,0,0,.57.62,8.22,8.22,0,0,1,2.35,1,.79.79,0,0,0,.86,0l1.36-1a10.65,10.65,0,0,1,1.7,1.65l-1,1.47a.78.78,0,0,0,0,.83,8.73,8.73,0,0,1,1,2.42.78.78,0,0,0,.62.59l1.81.31a10.35,10.35,0,0,1,0,2.36l-1.81.33a.77.77,0,0,0-.62.58,8.89,8.89,0,0,1-1,2.42.76.76,0,0,0,0,.83l1,1.48a10.42,10.42,0,0,1-1.68,1.64l-1.39-1a.77.77,0,0,0-.86,0,7.89,7.89,0,0,1-2.34,1,.8.8,0,0,0-.58.62L54.2,72a10.35,10.35,0,0,1-2.36,0l-.28-1.6a.76.76,0,0,0-.58-.62,8.2,8.2,0,0,1-2.34-1,.77.77,0,0,0-.87,0l-1.36,1a11.06,11.06,0,0,1-1.7-1.65l1-1.46a.78.78,0,0,0,0-.84,8.49,8.49,0,0,1-1-2.42.79.79,0,0,0-.62-.57l-1.82-.33a10.33,10.33,0,0,1,0-2.36ZM39,42v9.81a1.42,1.42,0,0,1-1.42,1.42H36.39a1.33,1.33,0,0,0-1.33,1.32v2.15l-3-3.07a1.36,1.36,0,0,0-.95-.39H23.48a1.42,1.42,0,0,1-1.43-1.42V42a1.43,1.43,0,0,1,1.42-1.42l14.07,0A1.43,1.43,0,0,1,39,42ZM27.78,35.06V26.61a.6.6,0,0,1,.6-.6l39.44,0a.6.6,0,0,1,.6.6V35Z" transform="translate(-20.49 -24.43)"/><path class="cls-1" d="M40.09,27.91a2.62,2.62,0,1,0,2.61,2.61,2.62,2.62,0,0,0-2.61-2.61Zm0,3.68A1.06,1.06,0,0,1,39,30.53a1.07,1.07,0,0,1,2.14,0A1.06,1.06,0,0,1,40.09,31.59Z" transform="translate(-20.49 -24.43)"/><path class="cls-1" d="M47.45,27.9a2.62,2.62,0,1,0,2.62,2.62A2.63,2.63,0,0,0,47.45,27.9Zm0,3.69a1.07,1.07,0,0,1-1.06-1.07,1.06,1.06,0,0,1,1.06-1.07,1.07,1.07,0,0,1,1.07,1.07,1.06,1.06,0,0,1-1.07,1.07Z" transform="translate(-20.49 -24.43)"/><path d="M63.48,27.89H54.82a2.62,2.62,0,1,0,0,5.23h8.67a2.62,2.62,0,0,0,0-5.23Zm0,3.68H54.82a1.07,1.07,0,0,1-1.07-1.07,1.06,1.06,0,0,1,1.07-1.07h8.66a1,1,0,0,1,1.07,1.06,1.07,1.07,0,0,1-1.07,1.07Z" transform="translate(-20.49 -24.43)"/><path class="cls-1" d="M32.72,27.92a2.62,2.62,0,1,0,2.62,2.61,2.61,2.61,0,0,0-2.62-2.61Zm0,3.68a1.07,1.07,0,1,1,0-2.13,1.07,1.07,0,1,1,0,2.13Z" transform="translate(-20.49 -24.43)"/><path d="M53,67.56a6.27,6.27,0,1,0-6.27-6.26A6.26,6.26,0,0,0,53,67.56Zm0-11a4.72,4.72,0,1,1-4.71,4.72A4.74,4.74,0,0,1,53,56.58Z" transform="translate(-20.49 -24.43)"/><path d="M24.78,44.83H36.16a.78.78,0,1,0,0-1.55H24.78a.78.78,0,0,0,0,1.55Z" transform="translate(-20.49 -24.43)"/><path d="M24.79,49.81H36.17a.78.78,0,0,0,0-1.55H24.79A.78.78,0,0,0,24,49a.77.77,0,0,0,.78.77Z" transform="translate(-20.49 -24.43)"/><path class="cls-1" d="M64.49,40.06l-18.87,0a.77.77,0,0,0,0,1.54H64.49a.77.77,0,0,0,.77-.78.76.76,0,0,0-.77-.77Z" transform="translate(-20.49 -24.43)"/><path class="cls-1" d="M64.49,44.77l-18.86,0a.77.77,0,1,0,0,1.54l18.87,0a.77.77,0,1,0,0-1.54Z" transform="translate(-20.49 -24.43)"/></g></svg>