<?xml version="1.0" standalone="no"?>
<!DOCTYPE svg PUBLIC "-//W3C//DTD SVG 20010904//EN"
 "http://www.w3.org/TR/2001/REC-SVG-20010904/DTD/svg10.dtd">
<svg version="1.0" xmlns="http://www.w3.org/2000/svg"
 width="1000.000000pt" height="450.000000pt" viewBox="0 0 1000.000000 450.000000"
 preserveAspectRatio="xMidYMid meet">

<g transform="translate(0.000000,450.000000) scale(0.100000,-0.100000)"
fill="#fff" stroke="none">
<path d="M3230 4159 c-345 -37 -743 -144 -1101 -295 -592 -249 -1216 -676
-1447 -992 -169 -229 -290 -522 -338 -817 -26 -156 -24 -396 4 -530 55 -270
180 -477 368 -611 241 -172 452 -144 775 101 68 52 170 130 225 172 127 97
237 162 334 199 71 27 83 28 245 29 198 0 250 -10 391 -80 135 -66 241 -154
519 -432 344 -343 457 -435 623 -503 269 -113 633 -86 911 66 264 145 459 374
587 689 28 72 37 84 85 117 117 81 217 201 264 316 53 130 55 162 55 827 l0
615 -160 0 -160 0 0 -39 0 -40 -54 27 -55 26 -32 91 c-126 359 -328 638 -579
800 -176 115 -424 197 -755 251 -118 19 -572 28 -705 13z m704 -69 c229 -34
473 -104 611 -173 230 -115 438 -333 570 -597 47 -93 115 -262 115 -284 0 -11
-10 -11 -52 -4 -117 22 -295 -11 -407 -75 -74 -42 -182 -146 -231 -223 -22
-35 -52 -98 -67 -141 -24 -69 -27 -93 -27 -208 0 -119 2 -137 30 -215 17 -47
47 -111 67 -142 52 -77 169 -186 244 -226 166 -88 383 -95 557 -18 l59 26 -7
-32 c-19 -96 -93 -197 -177 -243 -137 -74 -330 -2 -424 160 -20 34 -32 44 -44
40 -9 -4 -74 -29 -146 -56 -71 -28 -131 -52 -133 -54 -2 -2 13 -35 33 -75 105
-199 334 -352 551 -367 73 -5 173 6 220 24 12 4 10 -6 -6 -46 -118 -301 -357
-561 -626 -682 -288 -129 -613 -128 -864 2 -115 60 -231 159 -535 459 -154
152 -318 305 -364 339 -322 238 -714 264 -1029 70 -45 -27 -166 -115 -269
-196 -214 -166 -266 -202 -372 -252 -73 -34 -81 -36 -186 -36 -103 0 -114 2
-175 31 -167 80 -317 247 -390 435 -64 166 -75 233 -74 464 0 190 2 222 27
336 88 416 297 763 607 1009 465 369 1049 679 1568 834 233 70 448 110 737
140 104 11 475 -4 609 -24z m1293 -1411 c68 -33 119 -84 154 -158 32 -65 33
-205 2 -273 -30 -66 -96 -133 -162 -165 -47 -24 -69 -28 -136 -28 -96 1 -156
25 -223 93 -66 66 -96 139 -96 237 0 97 29 170 93 234 101 101 235 123 368 60z"/>
<path d="M4014 3461 c-154 -70 -123 -296 44 -327 47 -9 110 12 148 50 84 84
62 219 -46 274 -54 27 -92 28 -146 3z"/>
<path d="M3370 3199 c0 -149 -3 -269 -7 -267 -73 37 -152 70 -204 84 -85 22
-243 23 -329 1 -226 -58 -421 -239 -494 -457 -41 -120 -47 -280 -17 -401 35
-142 81 -220 190 -330 80 -80 110 -103 181 -137 197 -94 404 -95 598 -2 l82
39 0 -44 0 -45 160 0 160 0 0 915 0 915 -160 0 -160 0 0 -271z m-243 -511 c79
-29 181 -130 210 -208 59 -157 27 -316 -83 -427 -129 -129 -335 -144 -479 -35
-172 130 -204 381 -70 556 92 121 274 170 422 114z"/>
<path d="M1270 3019 c-116 -30 -208 -80 -294 -160 -169 -157 -246 -348 -233
-569 13 -213 112 -399 280 -526 122 -92 257 -136 417 -136 127 0 216 24 363
100 4 2 7 -17 7 -42 l0 -46 160 0 160 0 0 695 0 695 -160 0 -160 0 0 -48 0
-48 -74 36 c-142 70 -317 88 -466 49z m251 -313 c111 -26 207 -106 257 -214
23 -50 27 -70 27 -157 0 -92 -3 -106 -32 -167 -38 -81 -102 -146 -181 -185
-51 -25 -67 -28 -157 -28 -90 1 -106 4 -154 29 -117 61 -190 160 -210 287 -38
233 131 440 364 448 17 0 55 -5 86 -13z"/>
<path d="M3930 2335 l0 -695 155 0 155 0 0 695 0 695 -155 0 -155 0 0 -695z"/>
<path d="M6420 3031 c-30 -10 -74 -27 -97 -40 l-43 -21 0 30 0 30 -160 0 -160
0 0 -695 0 -695 160 0 159 0 3 418 3 417 31 65 c53 112 116 169 208 190 137
30 275 -66 326 -229 19 -59 20 -91 20 -462 l0 -399 159 0 160 0 3 413 c3 396
4 414 25 465 33 81 92 153 154 187 69 37 161 40 224 8 91 -48 166 -159 185
-274 5 -36 10 -227 10 -431 l0 -368 155 0 155 0 0 418 c0 384 -2 425 -20 496
-31 124 -92 228 -185 321 -128 128 -239 175 -413 175 -156 0 -272 -48 -388
-162 l-60 -59 -68 65 c-71 69 -154 117 -246 141 -77 21 -231 18 -300 -4z"/>
<path d="M8845 3034 c-186 -45 -253 -81 -375 -203 -145 -146 -198 -265 -207
-466 -6 -142 12 -230 73 -353 79 -160 241 -302 404 -353 187 -59 396 -37 560
58 36 21 102 75 147 120 136 136 202 299 203 499 0 308 -201 583 -494 676 -59
19 -264 33 -311 22z m235 -339 c94 -32 183 -120 223 -222 37 -95 31 -226 -15
-317 -31 -61 -111 -139 -175 -172 -53 -26 -67 -29 -158 -29 -89 0 -106 3 -157
28 -75 37 -160 128 -187 202 -58 155 -27 310 86 423 102 102 241 134 383 87z"/>
</g>
</svg>
