<svg id="Слой_1" data-name="Слой 1" xmlns="http://www.w3.org/2000/svg" viewBox="0 0 73.12 67.73"><defs><style>.cls-1{fill:#0080ff;}</style></defs><title>to top</title><path class="cls-1" d="M26.07,15.55a2.82,2.82,0,1,0-2.81,2.81A2.81,2.81,0,0,0,26.07,15.55Zm-2.81.67a.68.68,0,1,1,.67-.67A.67.67,0,0,1,23.26,16.22Z" transform="translate(-16.44 -9.27)"/><path class="cls-1" d="M30,18.36a2.82,2.82,0,1,0-2.82-2.81A2.81,2.81,0,0,0,30,18.36Zm0-3.49a.68.68,0,1,1-.68.68A.67.67,0,0,1,30,14.87Z" transform="translate(-16.44 -9.27)"/><path class="cls-1" d="M36.73,18.36a2.82,2.82,0,1,0-2.81-2.81A2.82,2.82,0,0,0,36.73,18.36Zm0-3.49a.68.68,0,1,1,0,1.35.68.68,0,0,1,0-1.35Z" transform="translate(-16.44 -9.27)"/><path class="cls-1" d="M23.32,27.19a1.07,1.07,0,0,0,1.07,1.07h2.49a1.08,1.08,0,0,0,0-2.15H24.39A1.07,1.07,0,0,0,23.32,27.19Z" transform="translate(-16.44 -9.27)"/><path class="cls-1" d="M45.25,26.11H30.05a1.08,1.08,0,0,0,0,2.15h15.2a1.08,1.08,0,0,0,0-2.15Z" transform="translate(-16.44 -9.27)"/><path class="cls-1" d="M44.17,31.4H38a1.07,1.07,0,1,0,0,2.14h6.16a1.07,1.07,0,0,0,0-2.14Z" transform="translate(-16.44 -9.27)"/><path class="cls-1" d="M35,31.4H32.89a1.07,1.07,0,0,0,0,2.14H35a1.07,1.07,0,0,0,0-2.14Z" transform="translate(-16.44 -9.27)"/><path class="cls-1" d="M29.58,31.4H24.39a1.07,1.07,0,0,0,0,2.14h5.19a1.07,1.07,0,0,0,0-2.14Z" transform="translate(-16.44 -9.27)"/><path d="M88.88,20.45a1.79,1.79,0,0,0-1.71-.27l-4.44,1.59V13.41a4.15,4.15,0,0,0-4.14-4.14h-48a1.07,1.07,0,0,0,0,2.14h48a2,2,0,0,1,2,2v6.32h-62V13.41a2,2,0,0,1,2-2h5.06a1.07,1.07,0,0,0,0-2.14H20.58a4.15,4.15,0,0,0-4.14,4.14V62.88A4.14,4.14,0,0,0,20.58,67H40.16v2.9H37.6a3.47,3.47,0,0,0-3.46,3.46v2A1.67,1.67,0,0,0,35.81,77H63.35A1.68,1.68,0,0,0,65,75.33v-2a3.47,3.47,0,0,0-3.47-3.46H59V67H78.59a4.14,4.14,0,0,0,4.14-4.14V33.67L84,32l1.58,1.29a1.76,1.76,0,0,0,1.8.27,1.78,1.78,0,0,0,1.1-1.46L89.55,22A1.8,1.8,0,0,0,88.88,20.45Zm-26,52.93v1.48H36.28V73.38a1.33,1.33,0,0,1,1.32-1.32h24A1.32,1.32,0,0,1,62.88,73.38Zm-6-3.46H42.3V67H56.87Zm23.72-7a2,2,0,0,1-2,2h-58a2,2,0,0,1-2-2V59.63h62Zm0-5.39H55L59.26,52l4.24,3.7a1.79,1.79,0,0,0,2.59-.26l14.5-19Zm5.84-26.28-1.92-1.58a1.08,1.08,0,0,0-.81-.23,1,1,0,0,0-.72.41l-18.36,24-4.24-3.7A1.78,1.78,0,0,0,59,49.7a1.75,1.75,0,0,0-1.24.68l-5,6.44H49.19l9.23-11.38L62,49.07a1.76,1.76,0,0,0,1.37.53,1.78,1.78,0,0,0,1.3-.68L68.56,44a1.08,1.08,0,1,0-1.69-1.33l-3.61,4.6-3.6-3.63a1.81,1.81,0,0,0-1.36-.53,1.84,1.84,0,0,0-1.3.66S46,57.39,46,57.49H18.58V21.87h62v.68l-3,1.07A1.8,1.8,0,0,0,76.43,25a1.77,1.77,0,0,0,.63,1.68l1.46,1.2-8.63,11a1.07,1.07,0,0,0,1.68,1.33l9.28-11.8a1.07,1.07,0,0,0-.16-1.49L78.9,25.43l8.46-3.05Z" transform="translate(-16.44 -9.27)"/></svg>